<svg xmlns="http://www.w3.org/2000/svg" viewBox="0 0 499 499" width="499" height="499"><defs></defs><g>
<rect fill="#ffffff" fill-opacity="0" x="0" y="0" width="500" height="500"/>
<g>
	<g>
		<path d="M250,90 C321.45612872238235,90 379.5,161.71443555535774 379.5,250 C379.5,338.28556444464226 321.45612872238235,410 250,410 C178.54387127761765,410 120.5,338.28556444464226 120.5,250 C120.5,161.71443555535774 178.54387127761765,90 250,90 Z" transform="matrix(1,0,0,1,0,0)" fill="#fefefe" fill-opacity="0" stroke="#000000" stroke-width="20.000000000000007"/>
	</g>
	<g>
		<path d="M260,337 C275.4956257854551,337.79628812758926 290.9912515709102,338.59257625517847 306.8393311527157,351.9089954142784 C322.6874107345212,365.2254145733784 338.8879441126773,391.06196476398907 353.8067978866165,405.1638207001944 C368.7256516605557,419.2656766363997 382.3628258302778,421.63283831819984 396,424" transform="matrix(0.870717016,0,0,1.181256549,54.15369729,-80.184394607)" fill="none" stroke="#000000" stroke-width="15"/>
	</g>
	<g>
		<path d="M340.6509062088757,349.2024295070804 C348.9276778755609,349.2024295070804 355.6509062088757,355.9256578403952 355.6509062088757,364.2024295070804 C355.6509062088757,372.4792011737656 348.9276778755609,379.2024295070804 340.6509062088757,379.2024295070804 C332.3741345421905,379.2024295070804 325.6509062088757,372.4792011737656 325.6509062088757,364.2024295070804 C325.6509062088757,355.9256578403952 332.3741345421905,349.2024295070804 340.6509062088757,349.2024295070804 Z" fill="#ffffff" stroke="#000000" stroke-width="5"/>
	</g>
	<g>
		<path d="M280.54012157790544,302.8990624993625 C288.81689324459063,302.8990624993625 295.54012157790544,309.6222908326773 295.54012157790544,317.8990624993625 C295.54012157790544,326.1758341660477 288.81689324459063,332.8990624993625 280.54012157790544,332.8990624993625 C272.26334991122025,332.8990624993625 265.54012157790544,326.1758341660477 265.54012157790544,317.8990624993625 C265.54012157790544,309.6222908326773 272.26334991122025,302.8990624993625 280.54012157790544,302.8990624993625 Z" fill="#ffffff" stroke="#000000" stroke-width="5"/>
	</g>
	<g>
		<path d="M398.9576358205489,405.66838228633793 C407.2344074872341,405.66838228633793 413.9576358205489,412.39161061965274 413.9576358205489,420.66838228633793 C413.9576358205489,428.9451539530231 407.2344074872341,435.66838228633793 398.9576358205489,435.66838228633793 C390.6808641538637,435.66838228633793 383.9576358205489,428.9451539530231 383.9576358205489,420.66838228633793 C383.9576358205489,412.39161061965274 390.6808641538637,405.66838228633793 398.9576358205489,405.66838228633793 Z" fill="#ffffff" stroke="#000000" stroke-width="5"/>
	</g>
	<g>
		<path d="M250.00000000000006,75.00000000000011 C258.27677166668525,75.00000000000011 265,81.72322833331488 265,90.00000000000006 C265,98.27677166668524 258.27677166668525,105 250.00000000000006,105 C241.7232283333149,105 235.0000000000001,98.27677166668524 235.0000000000001,90.00000000000006 C235.0000000000001,81.72322833331488 241.7232283333149,75.00000000000011 250.00000000000006,75.00000000000011 Z" fill="#ffffff" stroke="#000000" stroke-width="5"/>
	</g>
	<g>
		<path d="M132.35029772597855,302.8944751963987 C140.6270693926637,302.8944751963987 147.3502977259785,309.6177035297134 147.3502977259785,317.8944751963986 C147.3502977259785,326.1712468630838 140.6270693926637,332.89447519639856 132.35029772597855,332.89447519639856 C124.07352605929337,332.89447519639856 117.3502977259786,326.1712468630838 117.3502977259786,317.8944751963986 C117.3502977259786,309.6177035297134 124.07352605929337,302.8944751963987 132.35029772597855,302.8944751963987 Z" fill="#ffffff" stroke="#000000" stroke-width="5"/>
	</g>
	<g>
		<path d="M360.9594058600931,152.52380053956273 C369.2361775267783,152.52380053956273 375.95940586009306,159.2470288728775 375.95940586009306,167.52380053956267 C375.95940586009306,175.80057220624784 369.2361775267783,182.52380053956261 360.9594058600931,182.52380053956261 C352.6826341934079,182.52380053956261 345.95940586009317,175.80057220624784 345.95940586009317,167.52380053956267 C345.95940586009317,159.2470288728775 352.6826341934079,152.52380053956273 360.9594058600931,152.52380053956273 Z" fill="#ffffff" stroke="#000000" stroke-width="5"/>
	</g>
	<g>
		<path d="M250.00000000000028,395.0000000000003 C258.2767716666855,395.0000000000003 265.0000000000002,401.72322833331503 265.0000000000002,410.0000000000002 C265.0000000000002,418.2767716666854 258.2767716666855,425.00000000000017 250.00000000000028,425.00000000000017 C241.72322833331512,425.00000000000017 235.00000000000034,418.2767716666854 235.00000000000034,410.0000000000002 C235.00000000000034,401.72322833331503 241.72322833331512,395.0000000000003 250.00000000000028,395.0000000000003 Z" fill="#ffffff" stroke="#000000" stroke-width="5"/>
	</g>
</g></g></svg>